<mxfile host="app.diagrams.net" modified="2022-03-21T03:32:03.003Z" agent="5.0 (Macintosh; Intel Mac OS X 10_15_7) AppleWebKit/605.1.15 (KHTML, like Gecko) Version/15.3 Safari/605.1.15" etag="vW6DRDToFYvPbAeID4er" version="17.1.3" type="github">
  <diagram id="1qR-YILkwgbdzUPCVWST" name="Page-1">
    <mxGraphModel dx="786" dy="545" grid="1" gridSize="10" guides="1" tooltips="1" connect="1" arrows="1" fold="1" page="1" pageScale="1" pageWidth="827" pageHeight="1169" math="0" shadow="0">
      <root>
        <mxCell id="0" />
        <mxCell id="1" parent="0" />
        <mxCell id="FMtfgFideMw1u2nnzhZI-16" value="" style="whiteSpace=wrap;html=1;aspect=fixed;" vertex="1" parent="1">
          <mxGeometry x="576" y="266" width="50" height="50" as="geometry" />
        </mxCell>
        <mxCell id="FMtfgFideMw1u2nnzhZI-15" value="" style="whiteSpace=wrap;html=1;aspect=fixed;" vertex="1" parent="1">
          <mxGeometry x="404" y="265" width="50" height="50" as="geometry" />
        </mxCell>
        <mxCell id="FMtfgFideMw1u2nnzhZI-1" value="" style="whiteSpace=wrap;html=1;aspect=fixed;" vertex="1" parent="1">
          <mxGeometry x="215" y="265" width="50" height="50" as="geometry" />
        </mxCell>
        <mxCell id="FMtfgFideMw1u2nnzhZI-4" value="" style="ellipse;whiteSpace=wrap;html=1;" vertex="1" parent="1">
          <mxGeometry x="270" y="370" width="70" height="40" as="geometry" />
        </mxCell>
        <mxCell id="FMtfgFideMw1u2nnzhZI-5" value="" style="ellipse;whiteSpace=wrap;html=1;" vertex="1" parent="1">
          <mxGeometry x="510" y="380" width="70" height="40" as="geometry" />
        </mxCell>
        <mxCell id="FMtfgFideMw1u2nnzhZI-6" value="" style="ellipse;whiteSpace=wrap;html=1;" vertex="1" parent="1">
          <mxGeometry x="395" y="140" width="70" height="40" as="geometry" />
        </mxCell>
        <mxCell id="FMtfgFideMw1u2nnzhZI-7" value="" style="ellipse;whiteSpace=wrap;html=1;aspect=fixed;rotation=5;fillColor=#000000;" vertex="1" parent="1">
          <mxGeometry x="235" y="285" width="10" height="10" as="geometry" />
        </mxCell>
        <mxCell id="FMtfgFideMw1u2nnzhZI-8" value="" style="ellipse;whiteSpace=wrap;html=1;aspect=fixed;rotation=5;fillColor=#000000;" vertex="1" parent="1">
          <mxGeometry x="425" y="290" width="10" height="10" as="geometry" />
        </mxCell>
        <mxCell id="FMtfgFideMw1u2nnzhZI-9" value="" style="ellipse;whiteSpace=wrap;html=1;aspect=fixed;rotation=5;fillColor=#000000;" vertex="1" parent="1">
          <mxGeometry x="595" y="285" width="10" height="10" as="geometry" />
        </mxCell>
        <mxCell id="FMtfgFideMw1u2nnzhZI-12" value="R&lt;sub&gt;1&lt;/sub&gt;" style="text;html=1;align=center;verticalAlign=middle;resizable=0;points=[];autosize=1;strokeColor=none;fillColor=none;" vertex="1" parent="1">
          <mxGeometry x="225" y="240" width="30" height="20" as="geometry" />
        </mxCell>
        <mxCell id="FMtfgFideMw1u2nnzhZI-13" value="R&lt;font size=&quot;1&quot;&gt;&lt;sub&gt;2&lt;/sub&gt;&lt;/font&gt;" style="text;html=1;align=center;verticalAlign=middle;resizable=0;points=[];autosize=1;strokeColor=none;fillColor=none;perimeterSpacing=1;" vertex="1" parent="1">
          <mxGeometry x="414" y="240" width="30" height="20" as="geometry" />
        </mxCell>
        <mxCell id="FMtfgFideMw1u2nnzhZI-14" value="R&lt;font size=&quot;1&quot;&gt;&lt;sub&gt;3&lt;/sub&gt;&lt;/font&gt;" style="text;html=1;align=center;verticalAlign=middle;resizable=0;points=[];autosize=1;strokeColor=none;fillColor=none;" vertex="1" parent="1">
          <mxGeometry x="585" y="240" width="30" height="20" as="geometry" />
        </mxCell>
      </root>
    </mxGraphModel>
  </diagram>
</mxfile>
